<svg width="248" height="248" viewBox="0 0 248 248" fill="none" xmlns="http://www.w3.org/2000/svg">
<g filter="url(#filter0_f_433_252)">
<circle cx="124" cy="124" r="66" fill="#1B64D4" fill-opacity="0.4"/>
</g>
<g filter="url(#filter1_d_433_252)">
<circle cx="124" cy="124" r="60" fill="#0075E3"/>
<g clip-path="url(#clip0_433_252)">
<path d="M112 108V140C112 140.356 112.095 140.705 112.275 141.012C112.455 141.319 112.713 141.573 113.024 141.746C113.335 141.92 113.686 142.008 114.042 142C114.398 141.993 114.745 141.891 115.048 141.704L141.048 125.704C141.339 125.525 141.58 125.275 141.747 124.976C141.913 124.678 142.001 124.342 142.001 124C142.001 123.658 141.913 123.322 141.747 123.024C141.58 122.726 141.339 122.475 141.048 122.296L115.048 106.296C114.745 106.11 114.398 106.007 114.042 106C113.686 105.993 113.335 106.08 113.024 106.254C112.713 106.427 112.455 106.681 112.275 106.988C112.095 107.295 112 107.644 112 108Z" fill="white"/>
</g>
</g>
<defs>
<filter id="filter0_f_433_252" x="0.0999985" y="0.0999985" width="247.8" height="247.8" filterUnits="userSpaceOnUse" color-interpolation-filters="sRGB">
<feFlood flood-opacity="0" result="BackgroundImageFix"/>
<feBlend mode="normal" in="SourceGraphic" in2="BackgroundImageFix" result="shape"/>
<feGaussianBlur stdDeviation="28.95" result="effect1_foregroundBlur_433_252"/>
</filter>
<filter id="filter1_d_433_252" x="54" y="54" width="140" height="140" filterUnits="userSpaceOnUse" color-interpolation-filters="sRGB">
<feFlood flood-opacity="0" result="BackgroundImageFix"/>
<feColorMatrix in="SourceAlpha" type="matrix" values="0 0 0 0 0 0 0 0 0 0 0 0 0 0 0 0 0 0 127 0" result="hardAlpha"/>
<feOffset/>
<feGaussianBlur stdDeviation="5"/>
<feComposite in2="hardAlpha" operator="out"/>
<feColorMatrix type="matrix" values="0 0 0 0 0 0 0 0 0 0 0 0 0 0 0 0 0 0 0.1 0"/>
<feBlend mode="normal" in2="BackgroundImageFix" result="effect1_dropShadow_433_252"/>
<feBlend mode="normal" in="SourceGraphic" in2="effect1_dropShadow_433_252" result="shape"/>
</filter>
<clipPath id="clip0_433_252">
<rect width="48" height="48" fill="white" transform="translate(100 100)"/>
</clipPath>
</defs>
</svg>
