<svg width="292" height="224" viewBox="0 0 292 224" fill="none" xmlns="http://www.w3.org/2000/svg">
<path opacity="0.09" d="M133.441 0V64.0898C133.441 82.5208 129.882 101.685 122.766 121.582C115.858 141.27 106.334 160.12 94.1936 178.132C82.0531 195.935 68.238 211.224 52.7484 224L0 189.756C11.5125 172.372 21.5599 153.627 30.1419 133.52C38.724 113.204 43.0151 90.2702 43.0151 64.7181V0H133.441ZM292 0V64.0898C292 82.5208 288.442 101.685 281.325 121.582C274.417 141.27 264.893 160.12 252.753 178.132C240.612 195.935 226.902 211.224 211.622 224L158.873 189.756C170.176 172.372 180.119 153.627 188.701 133.52C197.283 113.204 201.574 90.2702 201.574 64.7181V0H292Z" fill="white"/>
</svg>
