<svg width="16" height="16" viewBox="0 0 16 16" fill="none" xmlns="http://www.w3.org/2000/svg">
<path fill-rule="evenodd" clip-rule="evenodd" d="M8 0.354004C3.65731 0.354004 0.163574 3.84774 0.163574 8.19043C0.163574 11.6515 2.41655 14.5902 5.51847 15.635C5.91029 15.7003 6.04089 15.4718 6.04089 15.2432C6.04089 15.0473 6.04089 14.5575 6.04089 13.9045C3.85322 14.3943 3.3961 12.8596 3.3961 12.8596C3.03693 11.9454 2.5145 11.7168 2.5145 11.7168C1.79616 11.227 2.57981 11.227 2.57981 11.227C3.36345 11.2923 3.78792 12.0433 3.78792 12.0433C4.47361 13.2515 5.61642 12.8923 6.07355 12.6964C6.13885 12.1739 6.33476 11.8474 6.56332 11.6515C4.83278 11.4556 3.00428 10.7699 3.00428 7.76596C3.00428 6.91701 3.29814 6.19867 3.82057 5.67624C3.75527 5.48033 3.4614 4.69669 3.88588 3.58653C3.88588 3.58653 4.53891 3.39062 6.04089 4.40282C6.66128 4.23956 7.34696 4.14161 8 4.14161C8.65304 4.14161 9.33872 4.23956 9.95911 4.40282C11.4611 3.39062 12.1141 3.58653 12.1141 3.58653C12.5386 4.66404 12.2774 5.44768 12.1794 5.67624C12.6692 6.23132 12.9957 6.91701 12.9957 7.76596C12.9957 10.7699 11.1672 11.423 9.40403 11.6189C9.69789 11.8474 9.92645 12.3372 9.92645 13.0555C9.92645 14.1004 9.92645 14.9493 9.92645 15.2106C9.92645 15.4065 10.0571 15.6677 10.4815 15.6024C13.5835 14.5902 15.8364 11.6515 15.8364 8.19043C15.8364 3.84774 12.3427 0.354004 8 0.354004Z" fill="white"/>
</svg>
