<svg width="18" height="18" viewBox="0 0 18 18" fill="none" xmlns="http://www.w3.org/2000/svg">
<path d="M9.00007 2.28331C11.1874 2.28331 11.4465 2.2915 12.3106 2.3309C12.8301 2.33726 13.3447 2.43266 13.832 2.61295C14.1854 2.74924 14.5063 2.958 14.7741 3.22582C15.0419 3.49363 15.2507 3.81456 15.387 4.16794C15.5673 4.65523 15.6627 5.16983 15.669 5.68937C15.708 6.55346 15.7166 6.8125 15.7166 8.99985C15.7166 11.1872 15.7084 11.4462 15.669 12.3103C15.6627 12.8299 15.5673 13.3445 15.387 13.8318C15.2507 14.1851 15.0419 14.5061 14.7741 14.7739C14.5063 15.0417 14.1854 15.2505 13.832 15.3867C13.3447 15.567 12.8301 15.6624 12.3106 15.6688C11.4468 15.7078 11.1878 15.7164 9.00007 15.7164C6.81233 15.7164 6.5533 15.7082 5.68959 15.6688C5.17005 15.6624 4.65545 15.567 4.16816 15.3867C3.81478 15.2505 3.49385 15.0417 3.22604 14.7739C2.95822 14.5061 2.74946 14.1851 2.61317 13.8318C2.43288 13.3445 2.33748 12.8299 2.33112 12.3103C2.29211 11.4462 2.28353 11.1872 2.28353 8.99985C2.28353 6.8125 2.29172 6.55346 2.33112 5.68937C2.33748 5.16983 2.43288 4.65523 2.61317 4.16794C2.74946 3.81456 2.95822 3.49363 3.22604 3.22582C3.49385 2.958 3.81478 2.74924 4.16816 2.61295C4.65545 2.43266 5.17005 2.33726 5.68959 2.3309C6.55369 2.29189 6.81272 2.28331 9.00007 2.28331ZM9.00007 0.807129C6.77644 0.807129 6.49634 0.816492 5.62249 0.856283C4.94255 0.869807 4.26982 0.998549 3.63292 1.23703C3.08657 1.44288 2.59171 1.76546 2.18288 2.18227C1.7657 2.59125 1.44284 3.08639 1.23686 3.63309C0.998379 4.26999 0.869637 4.94271 0.856113 5.62266C0.817102 6.49573 0.807739 6.77583 0.807739 8.99946C0.807739 11.2231 0.817102 11.5032 0.856893 12.377C0.870418 13.057 0.999159 13.7297 1.23764 14.3666C1.44339 14.9132 1.76598 15.4084 2.18288 15.8174C2.59194 16.2343 3.08707 16.5569 3.6337 16.7627C4.2706 17.0012 4.94333 17.1299 5.62327 17.1434C6.49712 17.1824 6.77605 17.1926 9.00085 17.1926C11.2257 17.1926 11.5046 17.1832 12.3784 17.1434C13.0584 17.1299 13.7311 17.0012 14.368 16.7627C14.912 16.5518 15.4061 16.2297 15.8185 15.817C16.231 15.4043 16.5528 14.91 16.7633 14.3658C17.0018 13.7289 17.1305 13.0562 17.144 12.3763C17.183 11.5032 17.1924 11.2231 17.1924 8.99946C17.1924 6.77583 17.183 6.49573 17.1433 5.62188C17.1297 4.94193 17.001 4.26921 16.7625 3.63231C16.5568 3.08568 16.2342 2.59055 15.8173 2.18149C15.4082 1.76459 14.9131 1.442 14.3664 1.23625C13.7295 0.997768 13.0568 0.869027 12.3769 0.855503C11.5038 0.816492 11.2237 0.807129 9.00007 0.807129Z" fill="white"/>
<path d="M9.00005 4.7915C8.16799 4.7915 7.35462 5.03824 6.66279 5.5005C5.97096 5.96277 5.43174 6.61981 5.11333 7.38853C4.79491 8.15725 4.7116 9.00313 4.87393 9.8192C5.03625 10.6353 5.43693 11.3849 6.02528 11.9732C6.61364 12.5616 7.36324 12.9623 8.17931 13.1246C8.99538 13.2869 9.84126 13.2036 10.61 12.8852C11.3787 12.5668 12.0357 12.0276 12.498 11.3357C12.9603 10.6439 13.207 9.83052 13.207 8.99846C13.207 7.88271 12.7638 6.81265 11.9748 6.02369C11.1859 5.23474 10.1158 4.7915 9.00005 4.7915ZM9.00005 11.7292C8.45995 11.7292 7.93199 11.5691 7.48291 11.269C7.03384 10.969 6.68383 10.5425 6.47714 10.0435C6.27045 9.5445 6.21638 8.99543 6.32174 8.46571C6.42711 7.93599 6.68719 7.44942 7.0691 7.06751C7.45101 6.6856 7.93758 6.42552 8.4673 6.32016C8.99702 6.21479 9.54609 6.26887 10.0451 6.47555C10.5441 6.68224 10.9705 7.03225 11.2706 7.48132C11.5707 7.9304 11.7308 8.45836 11.7308 8.99846C11.7308 9.72271 11.4431 10.4173 10.931 10.9294C10.4189 11.4415 9.7243 11.7292 9.00005 11.7292Z" fill="white"/>
<path d="M13.3729 5.60923C13.9158 5.60923 14.3559 5.16909 14.3559 4.62615C14.3559 4.08321 13.9158 3.64307 13.3729 3.64307C12.8299 3.64307 12.3898 4.08321 12.3898 4.62615C12.3898 5.16909 12.8299 5.60923 13.3729 5.60923Z" fill="white"/>
</svg>
