<svg width="20" height="20" viewBox="0 0 20 20" fill="none" xmlns="http://www.w3.org/2000/svg">
<path d="M10 20L9.676 19.995C7.05327 19.91 4.56906 18.7975 2.75918 16.8974C0.949298 14.9973 -0.041205 12.462 0.00131124 9.83823C0.0438275 7.21447 1.11596 4.71256 2.98645 2.87213C4.85694 1.0317 7.3759 0.000248759 10 0.000248988C12.6241 0.000249218 15.1431 1.0317 17.0136 2.87213C18.884 4.71256 19.9562 7.21447 19.9987 9.83823C20.0412 12.462 19.0507 14.9973 17.2408 16.8974C15.4309 18.7975 12.9467 19.91 10.324 19.995L10 20ZM9.387 14.79C9.58799 14.9454 9.8406 15.0185 10.0935 14.9944C10.3464 14.9703 10.5807 14.8508 10.7488 14.6603C10.9168 14.4697 11.006 14.2223 10.9982 13.9684C10.9905 13.7144 10.8863 13.473 10.707 13.293L8.416 11L14 11L14.117 10.993C14.3701 10.9629 14.6021 10.8373 14.7657 10.6418C14.9293 10.4464 15.0121 10.1958 14.9972 9.94139C14.9822 9.68695 14.8707 9.44782 14.6854 9.27285C14.5 9.09788 14.2549 9.00028 14 9L8.416 9L10.707 6.707L10.79 6.613C10.9454 6.41201 11.0185 6.1594 10.9944 5.90647C10.9703 5.65355 10.8508 5.41928 10.6603 5.25125C10.4697 5.08321 10.2223 4.99402 9.96838 5.00177C9.71443 5.00953 9.47296 5.11365 9.293 5.293L5.293 9.293L5.22 9.375L5.156 9.464L5.094 9.577L5.05 9.687L5.02 9.799L5.003 9.925L5 10L5.007 10.118L5.036 10.266L5.071 10.371L5.125 10.484L5.196 10.595C5.22554 10.6347 5.25796 10.6721 5.293 10.707L9.293 14.707L9.387 14.79Z" fill="white"/>
</svg>
