<svg width="15" height="15" viewBox="0 0 15 15" fill="none" xmlns="http://www.w3.org/2000/svg">
<path d="M4.56884 4.89251C4.12257 5.16027 3.95628 5.72556 4.18647 6.19232C5.1763 8.19934 6.80067 9.8237 8.80768 10.8135C9.27444 11.0437 9.83973 10.8774 10.1075 10.4312L10.9193 9.0781L13.6667 10.177V12.8333C13.6667 13.0101 13.5964 13.1797 13.4714 13.3047C13.3521 13.4241 13.1922 13.4935 13.0241 13.4996C10.0309 13.3088 7.20922 12.0336 5.0878 9.91221C2.96637 7.79078 1.69125 4.96915 1.50044 1.97591C1.50651 1.80785 1.57593 1.64793 1.69526 1.5286C1.82029 1.40357 1.98986 1.33334 2.16667 1.33334H4.82297L5.9219 4.08067L4.56884 4.89251Z" fill="#0075E3" stroke="#0075E3" stroke-width="2" stroke-linecap="round" stroke-linejoin="round"/>
</svg>
