<svg width="16" height="14" viewBox="0 0 16 14" fill="none" xmlns="http://www.w3.org/2000/svg">
<path d="M15.4728 2.3606C14.9124 2.60969 14.3208 2.76537 13.6981 2.85878C14.3208 2.48515 14.819 1.89356 15.0369 1.17743C14.4453 1.51992 13.7915 1.76901 13.0753 1.92469C12.5149 1.33311 11.7054 0.959473 10.8335 0.959473C9.15219 0.959473 7.7822 2.32946 7.7822 4.01082C7.7822 4.25991 7.81333 4.47786 7.87561 4.69582C5.35357 4.57127 3.08063 3.35696 1.55496 1.48879C1.30587 1.95583 1.15019 2.45401 1.15019 3.01446C1.15019 4.07309 1.6795 5.00718 2.52018 5.56763C2.022 5.53649 1.55496 5.41195 1.11905 5.19399V5.22513C1.11905 6.71967 2.17768 7.96512 3.57881 8.24534C3.32972 8.30761 3.0495 8.33875 2.76927 8.33875C2.58245 8.33875 2.3645 8.30761 2.17768 8.27648C2.58245 9.49079 3.70336 10.3937 5.04221 10.3937C3.98358 11.2033 2.67586 11.7015 1.2436 11.7015C0.994509 11.7015 0.745419 11.7015 0.527466 11.6703C1.89746 12.5421 3.4854 13.0403 5.22903 13.0403C10.8647 13.0403 13.9472 8.36989 13.9472 4.32218C13.9472 4.19764 13.9472 4.04196 13.9472 3.91741C14.5387 3.51264 15.0681 2.98333 15.4728 2.3606Z" fill="white"/>
</svg>
